<svg id="visual" viewBox="0 0 1920 7680" width="1920" height="7680" xmlns="http://www.w3.org/2000/svg" xmlns:xlink="http://www.w3.org/1999/xlink" version="1.1"><rect width="1920" height="7680" fill="#14213d"></rect><g><g transform="translate(489 7441)"><path d="M0 -298.4L258.4 -149.2L258.4 149.2L0 298.4L-258.4 149.2L-258.4 -149.2Z" fill="#fca311"></path></g><g transform="translate(904 5173)"><path d="M0 -273L236.4 -136.5L236.4 136.5L0 273L-236.4 136.5L-236.4 -136.5Z" fill="#fca311"></path></g><g transform="translate(1351 3067)"><path d="M0 -150L129.9 -75L129.9 75L0 150L-129.9 75L-129.9 -75Z" fill="#fca311"></path></g><g transform="translate(1449 1409)"><path d="M0 -295L255.5 -147.5L255.5 147.5L0 295L-255.5 147.5L-255.5 -147.5Z" fill="#fca311"></path></g><g transform="translate(133 4271)"><path d="M0 -220L190.5 -110L190.5 110L0 220L-190.5 110L-190.5 -110Z" fill="#fca311"></path></g><g transform="translate(535 6836)"><path d="M0 -287L248.5 -143.5L248.5 143.5L0 287L-248.5 143.5L-248.5 -143.5Z" fill="#fca311"></path></g><g transform="translate(954 2162)"><path d="M0 -226L195.7 -113L195.7 113L0 226L-195.7 113L-195.7 -113Z" fill="#fca311"></path></g><g transform="translate(1499 6475)"><path d="M0 -285L246.8 -142.5L246.8 142.5L0 285L-246.8 142.5L-246.8 -142.5Z" fill="#fca311"></path></g><g transform="translate(1763 549)"><path d="M0 -268L232.1 -134L232.1 134L0 268L-232.1 134L-232.1 -134Z" fill="#fca311"></path></g><g transform="translate(672 3411)"><path d="M0 -273L236.4 -136.5L236.4 136.5L0 273L-236.4 136.5L-236.4 -136.5Z" fill="#fca311"></path></g></g></svg>