<svg id="visual" viewBox="0 0 1920 1080" width="1920" height="1080" xmlns="http://www.w3.org/2000/svg" xmlns:xlink="http://www.w3.org/1999/xlink" version="1.1"><rect width="1920" height="1080" fill="#14213d"></rect><g><g transform="translate(1054 29)"><path d="M0 -111.9L96.9 -55.9L96.9 55.9L0 111.9L-96.9 55.9L-96.9 -55.9Z" fill="#fca311"></path></g><g transform="translate(530 369)"><path d="M0 -110L95.3 -55L95.3 55L0 110L-95.3 55L-95.3 -55Z" fill="#fca311"></path></g><g transform="translate(1539 940)"><path d="M0 -56L48.5 -28L48.5 28L0 56L-48.5 28L-48.5 -28Z" fill="#fca311"></path></g><g transform="translate(1070 704)"><path d="M0 -70L60.6 -35L60.6 35L0 70L-60.6 35L-60.6 -35Z" fill="#fca311"></path></g><g transform="translate(57 483)"><path d="M0 -72L62.4 -36L62.4 36L0 72L-62.4 36L-62.4 -36Z" fill="#fca311"></path></g><g transform="translate(417 922)"><path d="M0 -81L70.1 -40.5L70.1 40.5L0 81L-70.1 40.5L-70.1 -40.5Z" fill="#fca311"></path></g><g transform="translate(1770 833)"><path d="M0 -109L94.4 -54.5L94.4 54.5L0 109L-94.4 54.5L-94.4 -54.5Z" fill="#fca311"></path></g><g transform="translate(1302 820)"><path d="M0 -106L91.8 -53L91.8 53L0 106L-91.8 53L-91.8 -53Z" fill="#fca311"></path></g><g transform="translate(1070 971)"><path d="M0 -95L82.3 -47.5L82.3 47.5L0 95L-82.3 47.5L-82.3 -47.5Z" fill="#fca311"></path></g><g transform="translate(612 677)"><path d="M0 -95L82.3 -47.5L82.3 47.5L0 95L-82.3 47.5L-82.3 -47.5Z" fill="#fca311"></path></g></g></svg>